<svg xmlns="http://www.w3.org/2000/svg" width="30" height="30" viewBox="0 0 30 30">
  <g id="white_icon" transform="translate(-560 -546)">
    <g id="Rectangle_84" data-name="Rectangle 84" transform="translate(560 546)" fill="none" stroke="#fff" stroke-width="2">
      <rect width="30" height="30" rx="2" stroke="none"/>
      <rect x="1" y="1" width="28" height="28" rx="1" fill="none"/>
    </g>
    <path id="bolt-solid_1_" data-name="bolt-solid (1)" d="M10.3,5.575H6.283L7.767,1.052A.84.84,0,0,0,6.959,0H1.941a.837.837,0,0,0-.829.725L0,9.087a.838.838,0,0,0,.829.948H4.962L3.356,16.812a.835.835,0,0,0,1.537.61L11.025,6.829A.835.835,0,0,0,10.3,5.575Z" transform="translate(570.011 552)" fill="#fff"/>
  </g>
</svg>
