<svg xmlns="http://www.w3.org/2000/svg" width="97.674" height="23.837" viewBox="0 0 97.674 23.837">
  <g id="black" transform="translate(-399.553 -552.081)">
    <path id="bolt-solid_1_" data-name="bolt-solid (1)" d="M13.771,7.449H8.4l1.983-6.043A1.122,1.122,0,0,0,9.3,0H2.6A1.119,1.119,0,0,0,1.489.968L0,12.142a1.119,1.119,0,0,0,1.108,1.266H6.634L4.487,22.464a1.116,1.116,0,0,0,2.053.815L14.734,9.125A1.115,1.115,0,0,0,13.771,7.449Z" transform="translate(399.563 552.081)" fill="#3949ab"/>
    <g id="Flash_Able" data-name="Flash Able" transform="translate(423.751 557.392)">
      <g id="Layer_1" data-name="Layer 1">
        <g id="Flsh_ABle" data-name="Flsh ABle">
          <path id="Path_125" data-name="Path 125" d="M1.478,27.675H0V16H6.709v1.478H1.478Z" transform="translate(0 -15.054)" fill="#3949ab"/>
          <rect id="Rectangle_85" data-name="Rectangle 85" width="1.478" height="5.172" transform="translate(0.736 7.577) rotate(-89.79)" fill="#3949ab"/>
          <path id="Path_126" data-name="Path 126" d="M146.208,13.97a1.714,1.714,0,0,1-.96-.274,1.735,1.735,0,0,1-.735-1.214l0-.037V1h1.478V12.34a.223.223,0,0,0,.074.122.819.819,0,0,0,.558-.048l.45,1.408a2.853,2.853,0,0,1-.862.148Z" transform="translate(-135.968 -0.941)" fill="#3949ab"/>
          <path id="Path_127" data-name="Path 127" d="M1052.2,14.47a1.714,1.714,0,0,1-.96-.274,1.736,1.736,0,0,1-.735-1.214l0-.037V1.5h1.478V12.84a.223.223,0,0,0,.074.122.819.819,0,0,0,.558-.048l.451,1.408A2.854,2.854,0,0,1,1052.2,14.47Z" transform="translate(-988.402 -1.411)" fill="#3949ab"/>
          <path id="Path_128" data-name="Path 128" d="M223.478,69.561H222V65.47c0-.183,0-.368.01-.547a4.812,4.812,0,0,0-.085-1.393,2.941,2.941,0,0,0-.47-1,1.468,1.468,0,0,0-1.17-.567,4.739,4.739,0,0,0-2.565.933l-.84-1.214a6.2,6.2,0,0,1,3.436-1.2,2.927,2.927,0,0,1,2.305,1.137,4.38,4.38,0,0,1,.726,1.5,6.012,6.012,0,0,1,.14,1.839c0,.177-.01.34-.009.5v4.1Z" transform="translate(-204.06 -56.91)" fill="#3949ab"/>
          <path id="Path_129" data-name="Path 129" d="M216.846,121.472a2.856,2.856,0,0,1-1.64-.495,2.466,2.466,0,0,1-1.037-1.655,2.724,2.724,0,0,1,.532-2.062,4.405,4.405,0,0,1,2.169-1.407,10.867,10.867,0,0,1,3.3-.553l.03,1.478a9.527,9.527,0,0,0-2.849.473,3.016,3.016,0,0,0-1.472.9,1.237,1.237,0,0,0-.247.935.985.985,0,0,0,.42.672,1.6,1.6,0,0,0,1.36.146,5.686,5.686,0,0,0,2.227-1.537l1.055,1.036a7.036,7.036,0,0,1-2.86,1.919A3.435,3.435,0,0,1,216.846,121.472Z" transform="translate(-201.481 -108.484)" fill="#3949ab"/>
          <path id="Path_130" data-name="Path 130" d="M359,70.306a6.218,6.218,0,0,1-3.429-1.318l.88-1.185c.441.327,1.974,1.36,3.188.92a1.538,1.538,0,0,0,.887-.9.75.75,0,0,0-.072-.68,3.6,3.6,0,0,0-2.146-1.227,2.586,2.586,0,0,1-2.246-2.635,2.713,2.713,0,0,1,2.41-2.443,4.893,4.893,0,0,1,3.348.982l-.861,1.2a3.471,3.471,0,0,0-2.31-.716,1.234,1.234,0,0,0-1.114,1.089c-.054.705.78,1,1.141,1.089a5.06,5.06,0,0,1,3.015,1.851,2.224,2.224,0,0,1,.236,1.956,2.992,2.992,0,0,1-1.785,1.815A3.324,3.324,0,0,1,359,70.306Z" transform="translate(-334.551 -57.222)" fill="#3949ab"/>
          <rect id="Rectangle_86" data-name="Rectangle 86" width="1.478" height="12.65" transform="translate(29.468)" fill="#3949ab"/>
          <path id="Path_131" data-name="Path 131" d="M508.041,70.445l-1.478-.012c.011-1.278,0-2.527-.021-3.713v-.051c-.017-.854-.035-1.736-.118-2.583-.042-.429-.1-.6-.236-.744a1.492,1.492,0,0,0-.974-.445h-.034c-1.163,0-2.3,1.259-2.739,1.8l-1.152-.926c.709-.887,2.155-2.356,3.891-2.356h.064a2.936,2.936,0,0,1,2.01.9,2.521,2.521,0,0,1,.641,1.622c.089.9.107,1.816.125,2.7v.051C508.045,67.89,508.052,69.154,508.041,70.445Z" transform="translate(-471.657 -57.789)" fill="#3949ab"/>
          <path id="Path_132" data-name="Path 132" d="M698.059,28.406l-1.559-.024L700.429,16.5h1.961l3.746,11.941-1.5-.041L701.4,18.267Z" transform="translate(-655.328 -15.525)" fill="#3949ab"/>
          <rect id="Rectangle_87" data-name="Rectangle 87" width="5.295" height="1.478" transform="translate(43.395 7.771)" fill="#3949ab"/>
          <rect id="Rectangle_88" data-name="Rectangle 88" width="1.478" height="12.65" transform="translate(52.285)" fill="#3949ab"/>
          <path id="Path_133" data-name="Path 133" d="M891.322,70.887a5.2,5.2,0,0,1-3-1.119c-.207-.149-.418-.316-.628-.5l.965-1.121c.177.153.355.3.528.419a3.36,3.36,0,0,0,2.628.778,2.915,2.915,0,0,0,1.783-2.081,3.737,3.737,0,0,0,.076-1.67,3.472,3.472,0,0,0-1.406-2.353,1.559,1.559,0,0,0-1.368-.087,5.388,5.388,0,0,0-2.169,1.582l-1.11-.978a6.84,6.84,0,0,1,2.779-1.994,3.027,3.027,0,0,1,2.605.2,4.968,4.968,0,0,1,2.121,3.369,5.218,5.218,0,0,1-.106,2.337,4.318,4.318,0,0,1-2.838,3.113A3.423,3.423,0,0,1,891.322,70.887Z" transform="translate(-835.15 -57.923)" fill="#3949ab"/>
          <path id="Path_134" data-name="Path 134" d="M1121.538,70.969a3.908,3.908,0,0,1-2.5-.9,4.65,4.65,0,0,1-1.511-2.729,6.289,6.289,0,0,1,.181-3.238,3.558,3.558,0,0,1,3.377-2.617,3.462,3.462,0,0,1,2.787,1.089,4.867,4.867,0,0,1,.913,3.534l-.088.638h-5.772a3.425,3.425,0,0,0,1.04,2.174c1.644,1.324,3.564-.074,3.645-.134l.887,1.182a5.635,5.635,0,0,1-1.724.824A4.594,4.594,0,0,1,1121.538,70.969Zm-2.6-5.7h4.4a2.806,2.806,0,0,0-.577-1.718,2.032,2.032,0,0,0-1.652-.587,2.129,2.129,0,0,0-2,1.619,4.2,4.2,0,0,0-.168.686Z" transform="translate(-1051.346 -57.852)" fill="#3949ab"/>
        </g>
      </g>
    </g>
  </g>
</svg>
